<svg width="500" height="500" viewBox="0 0 500 500" fill="none" xmlns="http://www.w3.org/2000/svg">
<path d="M80.8445 428.1H259.372" stroke="#1C2628" stroke-width="2.13" stroke-linecap="round" stroke-linejoin="round"/>
<path d="M367.147 295.791C366.478 301.308 373.326 309.955 362.152 321.104C359.269 324.005 360.247 329.465 359.578 333.732C357.775 344.824 354.274 355.575 349.279 365.415" stroke="#1C2628" stroke-width="2.13" stroke-linecap="round" stroke-linejoin="round"/>
<path d="M370.649 288.112C372.091 289.591 373.584 291.183 373.996 293.231C374.614 296.416 372.348 299.659 369.567 300.853C366.787 302.048 363.697 301.65 360.762 301.138C352.214 299.659 343.821 297.156 335.736 293.686C338.311 292.492 340.628 290.558 342.43 288.168C343.203 287.145 343.872 285.722 343.254 284.585C342.636 283.39 340.937 283.447 339.959 284.3C338.98 285.154 338.517 286.519 338.105 287.827C337.693 289.135 337.127 290.501 336.097 291.24C334.192 292.548 331.72 291.24 329.815 289.932C327.446 288.282 325.077 286.689 322.708 285.04C326.107 281.172 329.609 277.133 334.14 275.199C337.333 273.834 341.04 273.436 343.46 270.819C344.439 269.795 345.16 268.43 346.447 267.861C348.095 267.179 349.948 268.203 351.081 269.682C352.214 271.104 352.935 272.924 353.965 274.517C354.995 276.052 356.54 277.474 358.29 277.304C360.402 277.133 361.895 274.573 361.637 272.241C361.38 269.909 359.732 268.032 357.775 267.065C355.87 266.098 353.656 265.984 351.545 266.041C354.274 265.131 356.282 262.628 358.496 260.694C360.711 258.76 363.8 257.224 366.323 258.703C368.435 259.898 369.361 262.742 369.155 265.302C368.95 267.861 367.868 270.25 366.838 272.583C365.911 274.517 362.873 278.953 363.646 281.058C364.109 282.253 366.22 283.675 367.096 284.585C368.332 285.722 369.464 286.974 370.649 288.112Z" fill="#F3A13B"/>
<path d="M408.393 328.385C405.304 335.836 402.163 343.345 397.528 349.716C392.894 356.086 386.56 361.32 379.248 362.628C374.202 363.538 369.052 362.514 364.006 363.026C358.96 363.538 353.45 366.098 351.699 371.388" stroke="#1C2628" stroke-width="2.13" stroke-linecap="round" stroke-linejoin="round"/>
<path d="M350.669 374.573C361.483 369.852 373.635 373.834 384.758 377.531C395.881 381.229 408.393 384.528 418.744 378.612C421.112 377.247 423.275 375.484 425.695 374.289C428.167 373.151 431.05 372.696 433.419 374.061" stroke="#1C2628" stroke-width="2.13" stroke-linecap="round" stroke-linejoin="round"/>
<path d="M350.978 379.181C355.922 377.418 359.269 371.274 358.342 365.643C358.033 363.823 357.363 362.116 357.106 360.353C356.437 356.2 357.724 352.048 358.136 347.895C358.548 343.743 357.518 338.737 354.068 337.031" stroke="#1C2628" stroke-width="2.13" stroke-linecap="round" stroke-linejoin="round"/>
<path d="M360.092 332.48C360.195 330.717 359.269 329.01 358.033 327.93C356.179 326.337 353.707 325.825 351.39 326.109C349.073 326.394 346.859 327.418 344.748 328.498C343.254 329.295 341.606 330.489 341.658 332.31C341.709 333.732 342.842 334.755 343.872 335.609C346.035 337.372 348.198 339.135 350.36 340.899C351.493 341.866 352.883 342.833 354.274 342.435C356.9 341.695 355.922 338.794 356.9 336.917C357.775 335.097 359.938 334.983 360.092 332.48Z" fill="#F3A13B"/>
<path d="M401.905 312.856C400.36 314.676 397.631 314.448 395.571 313.481C393.512 312.514 391.658 310.922 389.444 310.296C385.221 309.101 380.329 312.457 379.506 317.179C381.771 318.146 384.037 319.113 386.303 320.08C380.947 317.861 374.253 322.753 373.996 329.067C390.834 337.088 409.887 340.046 427.703 335.381C426.776 333.504 425.85 331.684 424.923 329.807C424.305 328.555 423.687 327.304 423.635 325.882C423.481 322.583 427.394 320.08 429.969 321.843C432.492 323.606 432.132 328.555 429.403 329.864C430.123 332.423 433.316 333.333 435.427 331.968C437.487 330.603 438.414 327.702 438.208 325.029C437.693 317.52 431.874 315.757 427.806 311.206C424.614 307.622 426.416 301.024 423.481 296.473C420.7 292.207 416.014 289.534 411.225 289.647C402.832 289.761 396.292 297.497 390.886 304.551C393.821 303.925 397.013 303.299 399.691 304.721C402.317 306.143 403.965 310.467 401.905 312.856ZM401.184 325.654C402.472 325.142 403.81 324.63 405.201 324.517C406.591 324.403 408.033 324.744 409.114 325.711C410.144 326.735 410.659 328.498 410.041 329.864C409.269 331.57 407.312 332.025 405.561 331.911C402.575 331.684 394.954 328.1 401.184 325.654Z" fill="#F3A13B"/>
<path d="M405.201 324.517C406.591 324.403 408.033 324.744 409.114 325.711C410.144 326.735 410.659 328.498 410.041 329.864C409.269 331.57 407.312 332.025 405.561 331.911C402.574 331.684 394.953 328.157 401.184 325.654C402.472 325.142 403.81 324.63 405.201 324.517Z" fill="#FAF6EB"/>
<path d="M422.708 370.762C416.478 378.726 410.299 386.746 404.068 394.71C407.054 392.947 410.71 392.548 414.006 393.686C415.139 394.084 416.22 394.653 417.405 394.653C419.258 394.653 420.855 393.345 422.091 391.809C423.326 390.273 424.356 388.567 425.798 387.315C427.24 386.064 429.351 385.438 430.947 386.462C429.66 389.989 427.343 393.06 424.408 395.108C432.029 395.051 439.598 391.354 444.851 385.211C445.674 384.243 446.447 382.878 445.88 381.798C445.571 381.172 444.902 380.831 444.284 380.546C442.688 379.864 437.23 378.498 436.818 376.507C436.612 375.484 437.59 373.891 437.693 372.753C437.796 371.388 437.59 369.966 436.972 368.714C435.685 366.041 432.801 364.448 430.072 364.96C426.982 365.415 424.717 368.203 422.708 370.762ZM421.215 375.028C421.833 374.573 422.708 374.573 423.223 375.142C423.893 375.825 423.687 378.84 423.378 379.807C422.811 381.399 420.134 383.22 419.979 379.408C419.928 378.612 419.928 377.816 420.082 377.019C420.237 376.223 420.597 375.484 421.215 375.028Z" fill="#F3A13B"/>
<path d="M423.224 375.142C423.893 375.825 423.687 378.84 423.378 379.807C422.812 381.399 420.134 383.22 419.979 379.408C419.928 378.612 419.928 377.816 420.082 377.019C420.237 376.223 420.597 375.484 421.215 375.028C421.833 374.63 422.709 374.573 423.224 375.142Z" fill="#FAF6EB"/>
<path d="M436.406 376.621C433.007 379.92 429.454 383.333 425.18 384.926C422.966 385.779 420.649 386.064 418.383 386.803C413.388 388.396 409.063 391.752 404.84 395.108" stroke="#1C2628" stroke-width="2.13" stroke-linecap="round" stroke-linejoin="round"/>
<path d="M426.622 309.5C417.714 309.613 408.908 314.505 400.875 318.715C395.675 321.445 390.783 324.972 385.324 326.906C381.565 328.214 377.6 328.726 373.687 328.441" stroke="#1C2628" stroke-width="2.13" stroke-linecap="round" stroke-linejoin="round"/>
<path d="M363.285 280.432C360.402 282.594 356.643 283.22 353.295 282.139C351.493 281.57 349.845 280.546 348.043 279.863C344.13 278.441 339.753 278.896 335.839 280.375C331.926 281.854 328.321 284.187 324.768 286.576" stroke="#1C2628" stroke-width="2.13" stroke-linecap="round" stroke-linejoin="round"/>
<path d="M341.658 331.343C343.975 332.31 346.395 332.935 348.867 333.106C349.897 333.22 350.978 333.22 352.008 333.561C353.605 334.13 354.892 335.438 356.076 336.746" stroke="#1C2628" stroke-width="2.13" stroke-linecap="round" stroke-linejoin="round"/>
<path d="M332.338 67.52C352.626 86.4051 368.486 108.419 381.565 133.788C394.593 159.101 405.046 187.77 394.439 207.452C384.037 227.133 352.832 237.827 332.183 252.275C311.74 266.496 301.854 284.642 287.745 290.671C273.79 296.701 255.819 291.069 231.668 291.069C207.672 291.069 177.497 296.701 164.984 283.675C152.472 270.819 157.209 239.42 155.973 210.808C154.583 181.968 146.807 155.859 151.03 131.513C155.098 107.167 170.803 84.3573 191.401 65.4722C211.843 46.7577 237.281 31.7407 262.152 32.1388C287.178 32.6508 312.049 48.4642 332.338 67.52Z" fill="#49574E"/>
<path fill-rule="evenodd" clip-rule="evenodd" d="M300.721 135.609C301.905 137.941 304.995 139.534 305.51 142.15C306.128 145.392 305.201 149.431 307.724 152.105C308.033 152.446 308.599 152.787 309.011 152.56C314.779 149.886 313.388 132.196 305.201 130.944" fill="#F45B49"/>
<path d="M300.721 135.609C301.905 137.941 304.995 139.534 305.51 142.15C306.128 145.392 305.201 149.431 307.724 152.105C308.033 152.446 308.599 152.787 309.011 152.56C314.779 149.886 313.388 132.196 305.201 130.944" stroke="#1C2628" stroke-width="2.13" stroke-linecap="round" stroke-linejoin="round"/>
<path fill-rule="evenodd" clip-rule="evenodd" d="M98.9187 223.777C101.287 223.094 104.428 224.403 106.488 223.038C109.011 221.331 111.071 217.747 114.521 217.861C114.985 217.861 115.551 218.089 115.706 218.544C117.971 224.972 105.458 236.121 98.9702 230.489" fill="#F45B49"/>
<path d="M98.9187 223.777C101.287 223.094 104.428 224.403 106.488 223.038C109.011 221.331 111.071 217.747 114.521 217.861C114.985 217.861 115.551 218.089 115.706 218.544C117.971 224.972 105.458 236.121 98.9702 230.489" stroke="#1C2628" stroke-width="2.13" stroke-linecap="round" stroke-linejoin="round"/>
<path fill-rule="evenodd" clip-rule="evenodd" d="M164.882 389.875C164.882 389.875 154.892 427.247 157.106 433.561C158.496 437.543 178.682 432.48 178.682 432.48C178.682 432.48 213.234 436.177 220.34 435.381C220.34 435.381 221.061 432.196 212.307 427.076C203.605 421.957 189.392 416.837 189.392 416.837L192.945 388.737L164.882 389.875Z" fill="#F45B49" stroke="#1C2628" stroke-width="2.13" stroke-linecap="round" stroke-linejoin="round"/>
<path fill-rule="evenodd" clip-rule="evenodd" d="M182.441 407.11L167.868 418.032L157.26 416.155L155.458 439.477L203.501 440.614L228.167 441.24C228.167 441.24 230.947 422.924 213.388 422.469C209.784 422.412 182.441 407.11 182.441 407.11Z" fill="#F45B49" stroke="#1C2628" stroke-width="2.13" stroke-linecap="round" stroke-linejoin="round"/>
<path d="M182.441 407.11L167.868 418.032L157.26 416.155L155.458 439.477L203.501 440.614L228.167 441.24C228.167 441.24 230.947 422.924 213.388 422.469C209.784 422.412 182.441 407.11 182.441 407.11Z" fill="#F45B49"/>
<path fill-rule="evenodd" clip-rule="evenodd" d="M196.395 445.563C200.206 442.264 210.968 430.432 210.968 430.432L212.667 416.781C212.667 416.781 239.907 430.489 231.411 442.492C226.467 449.488 216.787 449.773 209.732 450.683C205.355 451.252 202.008 450.171 198.249 448.009" fill="#F45B49"/>
<path d="M196.395 445.563C200.206 442.264 210.968 430.432 210.968 430.432L212.667 416.781C212.667 416.781 239.907 430.489 231.411 442.492C226.467 449.488 216.787 449.773 209.732 450.683C205.355 451.252 202.008 450.171 198.249 448.009" stroke="#1C2628" stroke-width="2.13" stroke-linecap="round" stroke-linejoin="round"/>
<path d="M182.441 407.11L167.868 418.032L157.26 416.155L155.458 439.477L203.501 440.614L228.167 441.24C228.167 441.24 230.947 422.924 213.388 422.469C209.784 422.412 182.441 407.11 182.441 407.11Z" stroke="#1C2628" stroke-width="2.13" stroke-linecap="round" stroke-linejoin="round"/>
<path d="M182.441 407.11L167.868 418.032L157.26 416.155L155.458 439.477L203.501 440.614L228.167 441.24C228.167 441.24 230.947 422.924 213.388 422.469C209.784 422.412 182.441 407.11 182.441 407.11Z" fill="#F45B49" stroke="#1C2628" stroke-width="2.13" stroke-linecap="round" stroke-linejoin="round"/>
<path fill-rule="evenodd" clip-rule="evenodd" d="M182.441 407.11L167.868 418.032L157.26 416.155L155.458 439.477L203.501 440.614L228.167 441.24C228.167 441.24 230.947 422.924 213.388 422.469C209.784 422.412 182.441 407.11 182.441 407.11Z" fill="#F45B49" stroke="#1C2628" stroke-width="2.13" stroke-linecap="round" stroke-linejoin="round"/>
<path d="M182.441 407.11L167.868 418.032L157.26 416.155L155.458 439.477L203.501 440.614L228.167 441.24C228.167 441.24 230.947 422.924 213.388 422.469C209.784 422.412 182.441 407.11 182.441 407.11Z" fill="#F45B49"/>
<path fill-rule="evenodd" clip-rule="evenodd" d="M196.395 445.563C200.206 442.264 210.968 430.432 210.968 430.432L212.667 416.781C212.667 416.781 239.907 430.489 231.411 442.492C226.467 449.488 216.787 449.773 209.732 450.683C205.355 451.252 202.008 450.171 198.249 448.009" fill="#F45B49"/>
<path d="M196.395 445.563C200.206 442.264 210.968 430.432 210.968 430.432L212.667 416.781C212.667 416.781 239.907 430.489 231.411 442.492C226.467 449.488 216.787 449.773 209.732 450.683C205.355 451.252 202.008 450.171 198.249 448.009" stroke="#1C2628" stroke-width="2.13" stroke-linecap="round" stroke-linejoin="round"/>
<path d="M182.441 407.11L167.868 418.032L157.26 416.155L155.458 439.477L203.501 440.614L228.167 441.24C228.167 441.24 230.947 422.924 213.388 422.469C209.784 422.412 182.441 407.11 182.441 407.11Z" stroke="#1C2628" stroke-width="2.13" stroke-linecap="round" stroke-linejoin="round"/>
<path d="M182.441 407.11L167.868 418.032L157.26 416.155L155.458 439.477L203.501 440.614L228.167 441.24C228.167 441.24 230.947 422.924 213.388 422.469C209.784 422.412 182.441 407.11 182.441 407.11Z" fill="#1C2628" stroke="#1C2628" stroke-width="2.13" stroke-linecap="round" stroke-linejoin="round"/>
<path d="M198.404 416.382L197.116 422.469" stroke="#FFFDFD" stroke-width="2.13" stroke-linecap="round" stroke-linejoin="round"/>
<path d="M202.832 418.714L202.008 424.232" stroke="#FFFDFD" stroke-width="2.13" stroke-linecap="round" stroke-linejoin="round"/>
<path d="M207.415 421.217L206.797 425.654" stroke="#FFFDFD" stroke-width="2.13" stroke-linecap="round" stroke-linejoin="round"/>
<path fill-rule="evenodd" clip-rule="evenodd" d="M155.664 435.097L157.054 408.988C157.054 408.988 177.961 406.542 185.839 405.29C190.371 404.608 193.306 410.182 189.135 414.335C186.148 417.349 177.6 421.274 177.6 421.274L175.283 435.779L155.664 435.097Z" fill="#F45B49" stroke="#1C2628" stroke-width="2.13" stroke-linecap="round" stroke-linejoin="round"/>
<path fill-rule="evenodd" clip-rule="evenodd" d="M184.088 410.466C184.14 409.272 185.067 408.305 186.097 408.362C187.127 408.362 187.899 409.386 187.847 410.523C187.796 411.718 186.869 412.685 185.839 412.628C184.758 412.628 183.985 411.661 184.088 410.466Z" fill="#F45B49" stroke="#1C2628" stroke-width="2.13" stroke-linecap="round" stroke-linejoin="round"/>
<path fill-rule="evenodd" clip-rule="evenodd" d="M155.304 433.163L175.695 433.561L177.497 436.689L228.991 437.372L228.579 443.8L154.634 442.378L155.304 433.163Z" fill="#F45B49" stroke="#1C2628" stroke-width="2.13" stroke-linecap="round" stroke-linejoin="round"/>
<path fill-rule="evenodd" clip-rule="evenodd" d="M166.066 165.927C185.067 202.048 204.068 238.566 217.147 277.759C218.795 282.708 219.619 288.282 218.898 293.458C213.594 330.944 205.716 367.918 199.125 405.176C170.958 406.712 170.958 406.712 142.843 408.248C150.361 373.037 164.315 338.794 165.345 302.617C166.015 278.612 152.214 256.712 147.837 233.219C145.469 220.421 144.542 207.224 145.16 194.141C145.469 187.713 147.013 180.887 150.67 175.938C154.429 170.819 160.917 169.226 166.066 165.927Z" fill="#1C2628" stroke="#1C2628" stroke-width="2.13" stroke-linecap="round" stroke-linejoin="round"/>
<path fill-rule="evenodd" clip-rule="evenodd" d="M155.87 87.4858L153.965 102.162L145.469 109.727C145.469 109.727 128.115 201.707 133.522 205.233C136.509 207.224 185.376 219.568 190.113 217.975C194.593 216.439 177.652 121.047 179.866 120.478C183.934 119.34 177.446 108.134 177.446 108.134L176.983 92.7759L177.343 86.0637L155.87 87.4858Z" fill="#F45B49" stroke="#1C2628" stroke-width="2.13" stroke-linecap="round" stroke-linejoin="round"/>
<path fill-rule="evenodd" clip-rule="evenodd" d="M194.078 136.405L195.366 159.784L135.067 160.125L128.321 132.537L194.078 136.405Z" fill="#1C2628" stroke="#1C2628" stroke-width="2.13" stroke-linecap="round" stroke-linejoin="round"/>
<path fill-rule="evenodd" clip-rule="evenodd" d="M200.206 126.223L244.954 134.471L302.42 124.687C302.42 124.687 312.255 128.953 315.603 134.471C318.898 139.989 314.418 151.195 314.418 151.195C314.418 151.195 313.697 153.925 311.02 149.545C308.342 145.108 310.196 139.875 310.196 139.875L305.716 135.836L296.962 140.501C296.962 140.501 302.214 142.776 303.399 145.336C304.583 147.895 301.648 149.545 301.648 149.545L291.246 145.734C291.246 145.734 270.031 160.068 243.872 162.4C217.662 164.733 186.869 157.395 186.869 157.395" fill="#F45B49"/>
<path d="M200.206 126.223L244.954 134.471L302.42 124.687C302.42 124.687 312.255 128.953 315.603 134.471C318.898 139.989 314.418 151.195 314.418 151.195C314.418 151.195 313.697 153.925 311.02 149.545C308.342 145.108 310.196 139.875 310.196 139.875L305.716 135.836L296.962 140.501C296.962 140.501 302.214 142.776 303.399 145.336C304.583 147.895 301.648 149.545 301.648 149.545L291.246 145.734C291.246 145.734 270.031 160.068 243.872 162.4C217.662 164.733 186.869 157.395 186.869 157.395" stroke="#1C2628" stroke-width="2.13" stroke-linecap="round" stroke-linejoin="round"/>
<path fill-rule="evenodd" clip-rule="evenodd" d="M67.9712 193.515L92.9969 232.708C92.9969 232.708 102.626 237.6 108.496 236.405C114.367 235.21 118.538 223.834 118.538 223.834C118.538 223.834 119.825 221.388 115.088 222.298C110.35 223.208 108.187 228.328 108.187 228.328L102.472 227.531L99.4336 217.349C99.4336 217.349 104.531 219.966 107.055 219.113C109.578 218.316 108.548 214.79 108.548 214.79L98.8157 209.158C98.8157 209.158 95.4686 192.435 85.8394 174.346" fill="#F45B49"/>
<path d="M67.9712 193.515L92.9969 232.708C92.9969 232.708 102.626 237.6 108.496 236.405C114.367 235.21 118.538 223.834 118.538 223.834C118.538 223.834 119.825 221.388 115.088 222.298C110.35 223.208 108.187 228.328 108.187 228.328L102.472 227.531L99.4336 217.349C99.4336 217.349 104.531 219.966 107.055 219.113C109.578 218.316 108.548 214.79 108.548 214.79L98.8157 209.158C98.8157 209.158 95.4686 192.435 85.8394 174.346" stroke="#1C2628" stroke-width="2.13" stroke-linecap="round" stroke-linejoin="round"/>
<path fill-rule="evenodd" clip-rule="evenodd" d="M184.604 350.228L161.792 395.563L170.494 420.592L170.649 421.104C170.649 421.104 172.348 424.232 164.521 423.948L160.453 420.762L140.834 393.003C140.834 393.003 137.384 389.022 140.113 383.276C142.019 379.238 143.718 375.939 143.718 375.939L162.153 335.381" fill="#F45B49"/>
<path d="M184.604 350.228L161.792 395.563L170.494 420.592L170.649 421.104C170.649 421.104 172.348 424.232 164.521 423.948L160.453 420.762L140.834 393.003C140.834 393.003 137.384 389.022 140.113 383.276C142.019 379.238 143.718 375.939 143.718 375.939L162.153 335.381" stroke="#1C2628" stroke-width="2.13" stroke-linecap="round" stroke-linejoin="round"/>
<path fill-rule="evenodd" clip-rule="evenodd" d="M182.956 75.9386C183.625 59.6132 179.763 62.6849 178.682 58.3049C176.622 49.5449 174.099 46.7577 159.372 48.8055C156.797 49.1468 153.759 49.488 151.493 50.967C141.092 57.6792 141.761 67.1217 141.761 67.1217C141.761 67.1217 137.281 89.4198 159.423 90.1024C181.565 90.7281 159.475 89.7042 171.112 85.7224C182.75 81.6837 182.956 75.9386 182.956 75.9386Z" fill="#1C2628" stroke="#1C2628" stroke-width="2.13" stroke-linecap="round" stroke-linejoin="round"/>
<path fill-rule="evenodd" clip-rule="evenodd" d="M153.089 78.4983C152.163 74.744 152.472 67.2355 153.295 63.8225C154.789 57.6792 155.87 58.0773 161.586 56.314C167.971 54.38 173.687 53.7542 177.858 59.3856C179.454 61.5472 182.235 72.9806 182.956 75.9385C185.582 86.4619 180.432 94.0273 171.627 96.7008C165.963 98.4073 161.38 97.8953 157.209 93.4585C154.84 91.0125 154.016 82.3094 153.089 78.4983Z" fill="#F45B49" stroke="#1C2628" stroke-width="2.13" stroke-linecap="round" stroke-linejoin="round"/>
<path fill-rule="evenodd" clip-rule="evenodd" d="M160.453 76.0523C160.041 74.5734 161.225 72.8669 163.182 72.1274C165.139 71.4448 167.044 72.0136 167.456 73.4926C167.92 74.9715 166.684 76.678 164.727 77.4175C162.822 78.1001 160.916 77.4744 160.453 76.0523Z" fill="#FAFCFF" stroke="#1C2628" stroke-width="2.13" stroke-linecap="round" stroke-linejoin="round"/>
<path fill-rule="evenodd" clip-rule="evenodd" d="M172.348 72.1274C171.936 70.6484 173.121 68.942 175.077 68.2025C177.034 67.5199 178.939 68.0887 179.351 69.5677C179.815 71.0466 178.579 72.7531 176.622 73.4926C174.717 74.2321 172.812 73.6064 172.348 72.1274Z" fill="#FAFCFF" stroke="#1C2628" stroke-width="2.13" stroke-linecap="round" stroke-linejoin="round"/>
<path fill-rule="evenodd" clip-rule="evenodd" d="M157.827 104.209L156.437 88.9078C156.437 88.9078 167.611 86.1774 170.288 89.4198C172.966 92.6052 170.134 103.129 170.134 103.129L163.388 104.209" fill="#FB564C"/>
<path fill-rule="evenodd" clip-rule="evenodd" d="M154.48 78.669C153.244 76.9625 150.669 78.669 150.206 80.3186C149.228 83.6747 152.42 89.3061 157.209 85.0399" fill="#F45B49"/>
<path d="M154.48 78.669C153.244 76.9625 150.669 78.669 150.206 80.3186C149.228 83.6747 152.42 89.3061 157.209 85.0399" stroke="#1C2628" stroke-width="2.13" stroke-linecap="round" stroke-linejoin="round"/>
<path fill-rule="evenodd" clip-rule="evenodd" d="M166.478 76.678C165.551 77.3606 164.418 77.19 163.955 76.3936C163.491 75.5972 163.852 74.3458 164.779 73.7201C165.706 73.0375 166.838 73.2082 167.302 74.0045C167.817 74.8009 167.405 75.9954 166.478 76.678Z" fill="#1C2628" stroke="#1C2628" stroke-width="2.13" stroke-linecap="round" stroke-linejoin="round"/>
<path fill-rule="evenodd" clip-rule="evenodd" d="M175.953 72.355C175.335 71.3311 175.489 69.6815 177.961 69.1696C178.836 68.9989 178.733 69.454 179.351 70.4779C179.969 71.5018 179.145 72.6394 178.373 73.1514C177.703 73.7202 176.571 73.322 175.953 72.355Z" fill="#1C2628" stroke="#1C2628" stroke-width="2.13" stroke-linecap="round" stroke-linejoin="round"/>
<path d="M154.222 82.2526C154.222 82.2526 153.605 81.4562 153.708 81.57" stroke="#1C2628" stroke-width="2.13" stroke-linecap="round" stroke-linejoin="round"/>
<path fill-rule="evenodd" clip-rule="evenodd" d="M166.169 82.2526C167.405 85.1536 170.958 84.1297 173.481 85.1536C173.481 85.1536 171.473 89.9317 167.25 87.4289C164.418 85.7224 166.169 82.2526 166.169 82.2526Z" fill="#1C2628" stroke="#1C2628" stroke-width="2.13" stroke-linecap="round" stroke-linejoin="round"/>
<path fill-rule="evenodd" clip-rule="evenodd" d="M170.855 73.1512C170.855 73.1512 178.115 78.5551 177.755 79.8065C176.364 84.5847 172.76 80.9442 172.09 81.1149" fill="#F45B49"/>
<path d="M170.855 73.1512C170.855 73.1512 178.115 78.5551 177.755 79.8065C176.364 84.5847 172.76 80.9442 172.09 81.1149" stroke="#1C2628" stroke-width="2.13" stroke-linecap="round" stroke-linejoin="round"/>
<path fill-rule="evenodd" clip-rule="evenodd" d="M257.57 267.179C255.304 284.869 222.194 332.537 202.317 359.898C193.615 371.843 187.436 379.92 187.436 379.92C187.436 379.92 180.278 377.531 170.237 377.361C164.779 377.247 157.209 380.148 152.523 379.067C139.238 375.882 134.346 362.173 134.346 362.173C134.346 362.173 164.882 307.338 191.916 279.807C180.948 273.72 133.625 234.528 128.682 229.124C118.744 218.259 117.456 196.132 122.863 188.453C132.75 174.403 161.02 177.816 171.73 169.738C176.365 177.588 190.628 191.411 206.231 206.485C230.896 230.091 258.908 256.826 257.57 267.179Z" fill="#1C2628" stroke="#1C2628" stroke-width="2.13" stroke-linecap="round" stroke-linejoin="round"/>
<path fill-rule="evenodd" clip-rule="evenodd" d="M64.3666 145.848C51.5963 164.505 59.6293 191.638 72.6056 208.703C75.6952 211.889 99.3821 195.393 99.3821 195.393L95.0567 169.283L119.001 153.811C119.001 153.811 111.74 196.075 120.803 201.593C136.251 211.035 155.767 201.991 172.915 201.251C182.029 202.958 198.352 203.186 205.613 199.317C215.963 193.8 206.231 163.823 206.231 163.823C206.231 163.823 224.356 171.957 244.748 169.966C265.191 168.032 287.899 155.973 287.899 155.973L275.85 124.517L233.11 130.66C233.11 130.66 222.966 121.388 207.261 117.804C191.555 114.164 180.227 107.509 180.227 107.509C179.918 108.874 173.635 118.089 172.451 119.852L154.119 107.395L151.133 105.347C151.133 105.347 136.921 101.024 119.619 106.769C103.141 112.23 77.137 127.19 64.3666 145.848Z" fill="#F3A140" stroke="#1C2628" stroke-width="2.13" stroke-linecap="round" stroke-linejoin="round"/>
<path d="M82.8011 84.4141C84.5075 84.4141 85.8907 82.886 85.8907 81.0011C85.8907 79.1162 84.5075 77.5881 82.8011 77.5881C81.0948 77.5881 79.7115 79.1162 79.7115 81.0011C79.7115 82.886 81.0948 84.4141 82.8011 84.4141Z" fill="#FAF6EB"/>
<path d="M136.097 84.4141C137.803 84.4141 139.186 82.886 139.186 81.0011C139.186 79.1162 137.803 77.5881 136.097 77.5881C134.39 77.5881 133.007 79.1162 133.007 81.0011C133.007 82.886 134.39 84.4141 136.097 84.4141Z" fill="#FAF6EB"/>
<path d="M189.444 91.0693C191.15 91.0693 192.533 89.5413 192.533 87.6564C192.533 85.7714 191.15 84.2434 189.444 84.2434C187.737 84.2434 186.354 85.7714 186.354 87.6564C186.354 89.5413 187.737 91.0693 189.444 91.0693Z" fill="#FAF6EB"/>
<path d="M242.739 84.4141C244.446 84.4141 245.829 82.886 245.829 81.0011C245.829 79.1162 244.446 77.5881 242.739 77.5881C241.033 77.5881 239.65 79.1162 239.65 81.0011C239.65 82.886 241.033 84.4141 242.739 84.4141Z" fill="#FAF6EB"/>
<path d="M64.7271 110.296C66.4334 110.296 67.8167 108.768 67.8167 106.883C67.8167 104.998 66.4334 103.47 64.7271 103.47C63.0207 103.47 61.6375 104.998 61.6375 106.883C61.6375 108.768 63.0207 110.296 64.7271 110.296Z" fill="#FAF6EB"/>
<path d="M118.023 110.296C119.729 110.296 121.112 108.768 121.112 106.883C121.112 104.998 119.729 103.47 118.023 103.47C116.316 103.47 114.933 104.998 114.933 106.883C114.933 108.768 116.316 110.296 118.023 110.296Z" fill="#FAF6EB"/>
<path d="M171.37 110.296C173.076 110.296 174.459 108.768 174.459 106.883C174.459 104.998 173.076 103.47 171.37 103.47C169.663 103.47 168.28 104.998 168.28 106.883C168.28 108.768 169.663 110.296 171.37 110.296Z" fill="#FAF6EB"/>
<path d="M224.665 110.296C226.372 110.296 227.755 108.768 227.755 106.883C227.755 104.998 226.372 103.47 224.665 103.47C222.959 103.47 221.576 104.998 221.576 106.883C221.576 108.768 222.959 110.296 224.665 110.296Z" fill="#FAF6EB"/>
<path d="M271.988 110.296C273.694 110.296 275.077 108.768 275.077 106.883C275.077 104.998 273.694 103.47 271.988 103.47C270.281 103.47 268.898 104.998 268.898 106.883C268.898 108.768 270.281 110.296 271.988 110.296Z" fill="#FAF6EB"/>
<path d="M82.8011 136.803C84.5075 136.803 85.8907 135.275 85.8907 133.39C85.8907 131.505 84.5075 129.977 82.8011 129.977C81.0948 129.977 79.7115 131.505 79.7115 133.39C79.7115 135.275 81.0948 136.803 82.8011 136.803Z" fill="#FAF6EB"/>
<path d="M136.097 136.803C137.803 136.803 139.186 135.275 139.186 133.39C139.186 131.505 137.803 129.977 136.097 129.977C134.39 129.977 133.007 131.505 133.007 133.39C133.007 135.275 134.39 136.803 136.097 136.803Z" fill="#FAF6EB"/>
<path d="M189.444 136.803C191.15 136.803 192.533 135.275 192.533 133.39C192.533 131.505 191.15 129.977 189.444 129.977C187.737 129.977 186.354 131.505 186.354 133.39C186.354 135.275 187.737 136.803 189.444 136.803Z" fill="#FAF6EB"/>
<path d="M242.739 136.803C244.446 136.803 245.829 135.275 245.829 133.39C245.829 131.505 244.446 129.977 242.739 129.977C241.033 129.977 239.65 131.505 239.65 133.39C239.65 135.275 241.033 136.803 242.739 136.803Z" fill="#FAF6EB"/>
<path d="M64.7271 162.685C66.4334 162.685 67.8167 161.157 67.8167 159.272C67.8167 157.387 66.4334 155.859 64.7271 155.859C63.0207 155.859 61.6375 157.387 61.6375 159.272C61.6375 161.157 63.0207 162.685 64.7271 162.685Z" fill="#FAF6EB"/>
<path d="M118.023 162.685C119.729 162.685 121.112 161.157 121.112 159.272C121.112 157.387 119.729 155.859 118.023 155.859C116.316 155.859 114.933 157.387 114.933 159.272C114.933 161.157 116.316 162.685 118.023 162.685Z" fill="#FAF6EB"/>
<path d="M171.37 162.685C173.076 162.685 174.459 161.157 174.459 159.272C174.459 157.387 173.076 155.859 171.37 155.859C169.663 155.859 168.28 157.387 168.28 159.272C168.28 161.157 169.663 162.685 171.37 162.685Z" fill="#FAF6EB"/>
<path d="M224.665 162.685C226.372 162.685 227.755 161.157 227.755 159.272C227.755 157.387 226.372 155.859 224.665 155.859C222.959 155.859 221.576 157.387 221.576 159.272C221.576 161.157 222.959 162.685 224.665 162.685Z" fill="#FAF6EB"/>
<path d="M272.503 161.547C274.209 161.547 275.592 160.019 275.592 158.134C275.592 156.249 274.209 154.721 272.503 154.721C270.796 154.721 269.413 156.249 269.413 158.134C269.413 160.019 270.796 161.547 272.503 161.547Z" fill="#FAF6EB"/>
<path d="M82.8011 189.192C84.5075 189.192 85.8907 187.664 85.8907 185.779C85.8907 183.894 84.5075 182.366 82.8011 182.366C81.0948 182.366 79.7115 183.894 79.7115 185.779C79.7115 187.664 81.0948 189.192 82.8011 189.192Z" fill="#FAF6EB"/>
<path d="M136.097 189.192C137.803 189.192 139.186 187.664 139.186 185.779C139.186 183.894 137.803 182.366 136.097 182.366C134.39 182.366 133.007 183.894 133.007 185.779C133.007 187.664 134.39 189.192 136.097 189.192Z" fill="#FAF6EB"/>
<path d="M189.444 189.192C191.15 189.192 192.533 187.664 192.533 185.779C192.533 183.894 191.15 182.366 189.444 182.366C187.737 182.366 186.354 183.894 186.354 185.779C186.354 187.664 187.737 189.192 189.444 189.192Z" fill="#FAF6EB"/>
<path d="M242.739 189.192C244.446 189.192 245.829 187.664 245.829 185.779C245.829 183.894 244.446 182.366 242.739 182.366C241.033 182.366 239.65 183.894 239.65 185.779C239.65 187.664 241.033 189.192 242.739 189.192Z" fill="#FAF6EB"/>
<path d="M64.7271 215.017C66.4334 215.017 67.8167 213.489 67.8167 211.604C67.8167 209.719 66.4334 208.191 64.7271 208.191C63.0207 208.191 61.6375 209.719 61.6375 211.604C61.6375 213.489 63.0207 215.017 64.7271 215.017Z" fill="#FAF6EB"/>
<path d="M118.023 215.017C119.729 215.017 121.112 213.489 121.112 211.604C121.112 209.719 119.729 208.191 118.023 208.191C116.316 208.191 114.933 209.719 114.933 211.604C114.933 213.489 116.316 215.017 118.023 215.017Z" fill="#FAF6EB"/>
<path d="M171.37 215.017C173.076 215.017 174.459 213.489 174.459 211.604C174.459 209.719 173.076 208.191 171.37 208.191C169.663 208.191 168.28 209.719 168.28 211.604C168.28 213.489 169.663 215.017 171.37 215.017Z" fill="#FAF6EB"/>
<path d="M224.665 215.017C226.372 215.017 227.755 213.489 227.755 211.604C227.755 209.719 226.372 208.191 224.665 208.191C222.959 208.191 221.576 209.719 221.576 211.604C221.576 213.489 222.959 215.017 224.665 215.017Z" fill="#FAF6EB"/>
<path d="M271.988 215.017C273.694 215.017 275.077 213.489 275.077 211.604C275.077 209.719 273.694 208.191 271.988 208.191C270.281 208.191 268.898 209.719 268.898 211.604C268.898 213.489 270.281 215.017 271.988 215.017Z" fill="#FAF6EB"/>
<path fill-rule="evenodd" clip-rule="evenodd" d="M173.481 51.7065L177.858 59.4426C172.297 51.7065 170.546 73.834 156.179 73.834C155.767 73.834 148.043 75.9955 148.095 75.4267C148.146 74.6872 149.331 74.801 149.794 74.289C150.875 73.0376 151.236 71.6724 151.493 70.0797C151.854 68.0888 150.309 63.9932 151.802 62.4574C154.274 59.9546 157.775 51.479 160.659 51.7634L173.481 51.7065Z" fill="#1C2628" stroke="#1C2628" stroke-width="2.13" stroke-linecap="round" stroke-linejoin="round"/>
<path d="M233.831 131.229C235.839 132.651 237.024 134.585 238.311 136.803" stroke="#1C2628" stroke-width="2.13" stroke-linecap="round" stroke-linejoin="round"/>
<path d="M152.317 249.374L189.959 276.962L168.589 310.239" stroke="#FAF6EB" stroke-width="2.13" stroke-linecap="round" stroke-linejoin="round"/>
<path d="M178.27 377.076C185.118 376.792 185.582 380.944 185.582 380.944L213.182 345.62" stroke="#FAF6EB" stroke-width="2.13" stroke-linecap="round" stroke-linejoin="round"/>
<path d="M283.162 142.207C283.059 142.207 283.728 144.027 285.582 144.937C287.436 145.904 289.907 145.563 290.628 145.961" stroke="#1C2628" stroke-width="2.13" stroke-linecap="round" stroke-linejoin="round"/>
<path d="M91.0402 205.233C90.9887 205.176 92.5849 204.437 94.4902 205.29C96.3954 206.143 97.8888 208.305 98.6097 208.589" stroke="#1C2628" stroke-width="2.13" stroke-linecap="round" stroke-linejoin="round"/>
<path d="M295.983 136.291C298.97 136.746 301.442 135.95 304.377 135.779" stroke="#1C2628" stroke-width="2.13" stroke-linecap="round" stroke-linejoin="round"/>
<path d="M96.0865 219.511C98.4552 221.559 99.6396 224.061 101.545 226.507" stroke="#1C2628" stroke-width="2.13" stroke-linecap="round" stroke-linejoin="round"/>
<path fill-rule="evenodd" clip-rule="evenodd" d="M158.805 53.0717C158.136 52.6167 157.106 50.7964 156.488 50.6258C153.708 49.9432 147.065 47.0421 143.666 50.7395C140.268 54.4369 142.688 56.7691 142.688 56.7691C142.688 56.7691 134.346 60.5802 143.563 68.0319C144.645 68.942 143.512 69.8521 144.902 70.0797C145.984 70.2503 147.065 70.2503 148.198 70.3072" fill="#1C2628"/>
<path d="M158.805 53.0717C158.136 52.6167 157.106 50.7964 156.488 50.6258C153.708 49.9432 147.065 47.0421 143.666 50.7395C140.268 54.4369 142.688 56.7691 142.688 56.7691C142.688 56.7691 134.346 60.5802 143.563 68.0319C144.645 68.942 143.512 69.8521 144.902 70.0797C145.984 70.2503 147.065 70.2503 148.198 70.3072" stroke="#1C2628" stroke-width="2.13" stroke-linecap="round" stroke-linejoin="round"/>
<path d="M111.895 149.886C103.038 152.332 95.5201 158.874 88.0535 164.619C82.8527 168.601 81.4624 177.759 80.8445 184.187" stroke="#1C2628" stroke-width="2.13" stroke-linecap="round" stroke-linejoin="round"/>
<path d="M124.923 139.477C118.641 149.033 121.833 145.392 118.074 156.598" stroke="#1C2628" stroke-width="2.13" stroke-linecap="round" stroke-linejoin="round"/>
<path d="M123.12 172.184C121.061 175.654 119.516 187.258 125.283 191.752C131.771 196.758 136.457 194.824 143.357 192.548C145.366 191.866 150.309 188.908 148.404 185.779C141.452 174.289 127.188 198.635 145.52 197.725C148.816 197.554 152.008 196.644 155.252 196.132" stroke="#1C2628" stroke-width="2.13" stroke-linecap="round" stroke-linejoin="round"/>
<path d="M202.987 175.142C202.987 179.693 201.133 184.016 199.743 188.282" stroke="#1C2628" stroke-width="2.13" stroke-linecap="round" stroke-linejoin="round"/>
<path d="M205.561 181.911C206.746 194.198 201.03 196.871 201.03 196.871" stroke="#1C2628" stroke-width="2.13" stroke-linecap="round" stroke-linejoin="round"/>
<path d="M206.9 153.868C210.299 156.542 214.264 158.305 218.074 160.239" stroke="#1C2628" stroke-width="2.13" stroke-linecap="round" stroke-linejoin="round"/>
<path d="M203.347 148.066C203.45 150.227 206.282 153.129 206.9 156.826C207.261 158.987 204.532 162.002 206.128 163.766" stroke="#1C2628" stroke-width="2.13" stroke-linecap="round" stroke-linejoin="round"/>
<path d="M239.032 160.637C250.772 160.637 264.161 157.452 275.129 152.275" stroke="#1C2628" stroke-width="2.13" stroke-linecap="round" stroke-linejoin="round"/>
<path d="M255.252 152.674C262.513 150.796 269.516 147.839 276.571 145.108" stroke="#1C2628" stroke-width="2.13" stroke-linecap="round" stroke-linejoin="round"/>
<path fill-rule="evenodd" clip-rule="evenodd" d="M339.444 336.519H333.161V358.987H339.495L339.444 336.519Z" fill="#1C2628" stroke="#1C2628" stroke-width="2.13" stroke-linecap="round" stroke-linejoin="round"/>
<path fill-rule="evenodd" clip-rule="evenodd" d="M235.118 337.941H229.042V359.158H235.118V337.941Z" fill="#1C2628" stroke="#1C2628" stroke-width="2.13" stroke-linecap="round" stroke-linejoin="round"/>
<path fill-rule="evenodd" clip-rule="evenodd" d="M342.327 331.456H225.901V341.411H342.327V331.456Z" fill="#1C2628" stroke="#1C2628" stroke-width="2.13" stroke-linecap="round" stroke-linejoin="round"/>
<path fill-rule="evenodd" clip-rule="evenodd" d="M358.187 353.242H222.399V428.953H358.187V353.242Z" fill="#1C2628" stroke="#1C2628" stroke-width="2.13" stroke-linecap="round" stroke-linejoin="round"/>
<path d="M326.725 352.673L326.158 431.741" stroke="#FAF6EB" stroke-width="2.13" stroke-linecap="round" stroke-linejoin="round"/>
<path d="M308.96 395.904C308.96 390.501 304.686 386.177 299.433 386.177C294.181 386.177 289.907 390.557 289.907 395.904C289.907 401.251 294.181 405.631 299.433 405.631C304.686 405.631 308.96 401.251 308.96 395.904Z" stroke="#FAF6EB" stroke-width="2.13" stroke-linecap="round" stroke-linejoin="round"/>
<path d="M254.48 395.904C254.48 387.429 247.786 380.603 239.495 380.603C231.205 380.546 224.511 387.429 224.511 395.904C224.511 404.38 231.205 411.206 239.495 411.206C247.786 411.206 254.48 404.38 254.48 395.904Z" stroke="#FAF6EB" stroke-width="2.13" stroke-linecap="round" stroke-linejoin="round"/>
<path d="M326.57 369.511L221.833 369.226" stroke="#FAF6EB" stroke-width="2.13" stroke-linecap="round" stroke-linejoin="round"/>
<path d="M311.019 357.622H234.089V362.685H311.019V357.622Z" stroke="#FAF6EB" stroke-width="2.13" stroke-linecap="round" stroke-linejoin="round"/>
<path d="M350.515 374.972C350.515 370.876 347.271 367.577 343.306 367.577C339.289 367.577 336.045 370.876 336.045 374.972C336.045 379.067 339.289 382.366 343.306 382.366C347.271 382.423 350.515 379.067 350.515 374.972Z" stroke="#FAF6EB" stroke-width="2.13" stroke-linecap="round" stroke-linejoin="round"/>
<path d="M315.705 395.904C315.705 386.746 308.445 379.295 299.433 379.295C290.474 379.295 283.161 386.746 283.161 395.904C283.161 405.063 290.422 412.514 299.433 412.514C308.393 412.514 315.705 405.063 315.705 395.904Z" stroke="#FAF6EB" stroke-width="2.13" stroke-linecap="round" stroke-linejoin="round"/>
<path d="M247.94 395.904C247.94 391.126 244.13 387.258 239.495 387.258C234.809 387.258 230.999 391.126 230.999 395.904C230.999 400.683 234.809 404.551 239.495 404.551C244.181 404.551 247.94 400.683 247.94 395.904Z" stroke="#FAF6EB" stroke-width="2.13" stroke-linecap="round" stroke-linejoin="round"/>
<path fill-rule="evenodd" clip-rule="evenodd" d="M278.27 374.687H259.423V426.052H278.27V374.687Z" fill="#FAF6EB" stroke="#1C2628" stroke-width="2.13" stroke-linecap="round" stroke-linejoin="round"/>
<path d="M337.178 427.93C333.779 419.226 330.638 414.448 331.411 410.922C332.441 406.314 334.397 400.853 336.2 401.479C338.311 404.039 338.929 410.182 338.002 412.23C338.156 415.188 344.027 416.553 344.644 422.639C338.208 423.891 337.178 427.93 337.178 427.93Z" fill="#FB564C"/>
<path d="M358.496 420.99C357.827 413.14 373.223 402.56 373.893 402.048C374.562 400.683 376.158 393.402 379.815 389.989C382.132 387.713 385.582 387.6 386.457 389.875C386.509 390.899 384.706 391.069 383.831 394.312C382.956 397.554 381.771 402.617 382.956 409.215C376.467 416.155 364.418 423.265 364.161 423.151C360.762 422.526 358.496 420.99 358.496 420.99Z" fill="#FB564C"/>
<path d="M312.255 426.052C309.887 427.19 308.033 428.726 305.51 428.214C304.377 427.93 304.325 429.92 306.591 431.798C308.805 433.732 310.556 435.04 312.049 434.187C313.697 430.319 312.255 426.052 312.255 426.052Z" fill="#FB564C"/>
<path d="M393.924 418.658C394.181 419.226 396.962 424.118 395.829 432.025C395.263 435.836 393.924 438.965 391.452 441.525C388.774 444.312 384.809 446.473 379.145 448.35C372.348 450.569 354.428 450.398 340.371 449.886C331.514 449.545 324.202 449.033 322.142 448.806C316.89 448.237 311.74 441.24 310.453 432.366C309.217 423.834 313.028 420.99 316.169 419.226C321.318 416.382 327.961 410.694 331.308 416.325C333.677 420.307 334.655 421.672 337.075 422.127C338.465 422.412 349.64 419.17 365.242 420.08C365.242 420.08 363.234 415.586 369.516 408.874C375.798 402.162 384.603 405.006 387.848 408.134C387.075 406.314 388.002 397.668 389.598 394.824C392.842 389.022 397.013 392.548 396.138 394.653C395.263 396.758 395.005 405.29 396.138 410.694C397.168 416.041 398.043 418.373 393.924 418.658Z" fill="#FB564C"/>
<path d="M319.619 437.486C317.044 439.363 312.925 442.15 311.534 447.099C312.049 448.066 315.86 449.033 318.125 449.09C320.546 449.147 324.15 448.578 325.18 447.554C326.21 446.075 323.893 434.414 319.619 437.486Z" fill="#FB564C"/>
<path d="M319.773 442.492C318.434 442.264 314.984 445.62 314.83 446.473C316.066 447.44 321.782 446.758 322.091 446.189C322.194 445.279 319.773 442.492 319.773 442.492Z" fill="#1C2628" stroke="#1C2628" stroke-width="2.13" stroke-linecap="round" stroke-linejoin="round"/>
<path d="M344.747 431.058C346.447 429.124 347.219 429.238 345.777 427.816C341.143 423.208 339.856 419.852 339.856 417.804C339.856 415.7 344.85 411.604 348.558 412.059C351.751 412.457 355.252 412.002 355.716 413.766C354.686 417.349 352.06 418.771 350.154 419.852C355.716 421.217 359.526 424.346 359.938 425.711C360.607 428.953 356.488 436.462 353.089 437.713C349.691 438.908 342.533 433.618 344.747 431.058Z" fill="#FB564C"/>
<path d="M386.406 443.174C389.547 442.321 395.52 443.459 397.889 441.866C403.347 438.168 406.951 446.189 406.488 449.716C406.025 453.242 405.252 456.826 405.767 460.353C406.436 464.676 409.114 468.373 412.41 470.819C415.705 473.265 419.619 474.517 423.481 475.313C422.605 474.175 421.73 473.038 420.906 471.9C423.635 473.777 427.291 474.574 430.175 472.924C433.059 471.274 434.603 466.837 432.801 463.88C431.205 461.263 427.909 460.751 425.077 460.808C422.193 460.808 419.104 461.092 416.735 459.215C413.285 456.485 413.388 450.91 411.895 446.473C412.616 446.928 413.285 447.384 414.006 447.895C411.998 440.956 409.011 433.39 402.883 430.66C399.227 429.01 394.078 429.295 390.834 431.741C387.59 434.187 386.354 438.794 386.406 443.174Z" fill="#FB564C"/>
<path d="M331.05 424.289C331.256 425.028 326.674 429.408 326.674 429.408C323.944 430.319 323.584 428.384 322.4 426.052C321.473 424.232 321.524 419.34 322.091 417.349C322.709 414.96 325.077 414.334 325.901 415.245C325.901 415.245 328.476 417.634 329.918 418.999C330.536 419.226 332.389 421.843 331.05 424.289Z" fill="#FB564C"/>
<path d="M321.318 421.16C321.988 420.819 322.4 420.137 322.194 419.625C321.988 419.113 321.267 418.942 320.597 419.226C319.928 419.511 319.516 420.25 319.722 420.762C319.928 421.331 320.649 421.502 321.318 421.16Z" fill="#1C2628" stroke="#1C2628" stroke-width="2.13" stroke-linecap="round" stroke-linejoin="round"/>
<path d="M324.768 430.148C325.438 429.807 325.849 429.124 325.644 428.612C325.438 428.1 324.717 427.929 324.047 428.214C323.378 428.555 322.966 429.238 323.172 429.75C323.378 430.262 324.047 430.432 324.768 430.148Z" fill="#1C2628" stroke="#1C2628" stroke-width="2.13" stroke-linecap="round" stroke-linejoin="round"/>
<path d="M326.21 422.924C324.562 421.957 323.223 420.705 324.305 423.549C325.386 426.45 325.798 425.37 326.21 422.924Z" fill="#1C2628" stroke="#1C2628" stroke-width="2.13" stroke-linecap="round" stroke-linejoin="round"/>
<path d="M327.909 424.63C328.115 424.175 328.115 423.663 327.961 423.265C327.961 423.208 327.909 423.208 327.909 423.151C327.755 422.867 327.6 422.583 327.085 422.412C327.291 421.957 327.188 421.502 327.085 421.104C326.931 420.649 326.57 420.25 326.107 420.023" stroke="#1C2628" stroke-width="2.13" stroke-linecap="round" stroke-linejoin="round"/>
<path d="M325.85 423.094L326.776 422.696" stroke="#1C2628" stroke-width="2.13" stroke-linecap="round" stroke-linejoin="round"/>
<path d="M354.119 416.325C353.141 418.032 350.515 419.17 350.103 419.795C349.691 420.535 357.106 423.891 359.475 427.247C357.003 432.082 353.707 436.576 349.536 439.704" stroke="#1C2628" stroke-width="2.13" stroke-linecap="round" stroke-linejoin="round"/>
<path d="M341.04 416.098C339.753 417.236 339.495 417.577 339.444 419.397C339.392 420.193 344.851 425.882 345.726 428.612" stroke="#1C2628" stroke-width="2.13" stroke-linecap="round" stroke-linejoin="round"/>
<path d="M382.904 405.461C379.145 406.655 373.635 406.087 372.451 410.182C371.009 415.302 370.958 420.933 372.451 426.052" stroke="#1C2628" stroke-width="2.13" stroke-linecap="round" stroke-linejoin="round"/>
<path d="M372.451 426.223C369.31 427.133 366.169 428.043 363.028 428.953" stroke="#1C2628" stroke-width="2.13" stroke-linecap="round" stroke-linejoin="round"/>
<path d="M335.53 426.223C335.221 427.588 338.826 437.201 338.517 438.567C338.363 439.192 338.208 439.875 337.745 440.216C337.281 440.558 336.457 440.273 336.457 439.647C336.303 440.501 336.097 441.411 335.479 441.923C334.861 442.435 333.677 441.98 333.78 441.126C333.831 441.866 333.419 442.605 332.801 442.833C332.183 443.06 331.411 442.776 331.102 442.207C331.308 442.947 330.845 443.8 330.278 444.198C329.712 444.596 328.939 444.71 328.218 444.824C325.953 445.108 323.687 445.165 321.421 445.051" stroke="#1C2628" stroke-width="2.13" stroke-linecap="round" stroke-linejoin="round"/>
<path d="M391.452 441.525C388.774 444.312 384.809 446.473 379.145 448.35C372.348 450.569 354.428 450.398 340.371 449.886C341.092 447.668 342.379 445.62 343.975 444.482C347.528 441.98 350.566 445.222 360.71 444.994C365.242 444.881 368.074 444.824 371.473 443.231C377.858 440.216 378.373 435.438 382.235 435.154C385.479 434.869 389.341 437.941 391.452 441.525Z" fill="#1C2628" stroke="#1C2628" stroke-width="2.13" stroke-linecap="round" stroke-linejoin="round"/>
<path fill-rule="evenodd" clip-rule="evenodd" d="M257.57 267.179C255.304 284.869 222.194 332.537 202.317 359.898C199.331 356.143 197.425 351.479 197.734 347.327C198.661 333.845 223.532 329.295 221.782 316.325C220.855 309.386 214.521 306.314 215.808 301.422C217.868 293.686 234.501 297.668 241.195 286.007C241.658 285.211 245.16 278.897 243.254 273.095C240.834 265.7 231.617 265.415 231.102 259.67C230.741 255.347 235.788 254.153 235.685 249.033C235.53 243.743 220.237 238.339 217.353 238.396C208.29 238.68 196.601 226.451 198.146 216.667C198.867 212.002 202.472 208.589 206.179 206.314C230.896 230.091 258.908 256.826 257.57 267.179Z" fill="#FAF6EB"/>
<path d="M264.779 84.7555L257.621 53.0717L258.033 52.8442L256.128 44.4255L227.446 60.4665L229.403 69.2265L229.815 68.9989L236.354 98.1229C234.449 97.5541 232.08 98.1798 230.021 99.8863C227.034 102.503 226.004 106.598 227.755 109.101C229.506 111.604 233.368 111.547 236.406 108.931C239.444 106.371 240.422 102.218 238.672 99.7157C238.62 99.6019 238.517 99.545 238.414 99.4312L232.286 72.2412L256.952 58.3618L262.564 83.3903C260.659 82.8215 258.239 83.3903 256.179 85.1536C253.141 87.7703 252.163 91.8658 253.914 94.3687C255.664 96.8715 259.526 96.8146 262.564 94.198C265.603 91.5814 266.581 87.4858 264.83 84.983C264.882 84.8692 264.83 84.8692 264.779 84.7555ZM231.977 70.3641L231.462 68.0888L256.076 54.0387L256.643 56.4847L231.977 70.3641Z" fill="#1C2628" stroke="#1C2628" stroke-width="2.13" stroke-linecap="round" stroke-linejoin="round"/>
<path d="M274.459 193.288C274.253 193.231 273.996 193.288 273.893 193.515C271.318 197.554 268.641 199.773 265.963 200.114C265.499 200.171 265.088 200.171 264.624 200.171C265.911 199.374 266.787 197.895 266.89 196.189C267.044 193.515 265.139 191.183 262.719 191.07C260.299 190.899 258.187 193.004 258.084 195.677C257.93 198.351 259.835 200.683 262.255 200.796C262.358 200.796 262.461 200.796 262.564 200.796C263.749 201.252 264.933 201.422 266.117 201.252C268.692 200.91 271.267 198.976 273.738 195.62L273.223 206.143C270.649 210.068 268.023 212.23 265.397 212.628C264.933 212.685 264.521 212.685 264.058 212.685C265.345 211.889 266.22 210.41 266.323 208.703C266.426 206.03 264.573 203.697 262.152 203.584C259.732 203.47 257.621 205.518 257.518 208.191C257.364 210.865 259.269 213.197 261.689 213.311C261.792 213.311 261.895 213.311 261.998 213.311C262.873 213.652 263.697 213.823 264.573 213.823C264.882 213.823 265.191 213.823 265.551 213.766C268.126 213.424 270.7 211.49 273.172 208.134L272.297 226.564L273.275 226.621L274.871 193.914C274.82 193.572 274.665 193.345 274.459 193.288Z" fill="#1C2628" stroke="#1C2628" stroke-width="2.13" stroke-linecap="round" stroke-linejoin="round"/>
<path d="M297.992 167.292C297.271 174.972 300.052 182.537 303.45 189.306C306.849 196.075 310.968 202.446 313.337 209.727C315.705 217.008 316.066 225.597 312.152 232.025C307.209 240.102 297.322 242.264 290.577 248.578C283.368 255.29 280.433 266.439 280.999 276.792C281.565 287.201 285.221 297.099 289.341 306.485" stroke="#1C2628" stroke-width="2.13" stroke-linecap="round" stroke-linejoin="round"/>
<path d="M314.006 248.066C308.651 249.033 303.708 252.617 300.721 257.622C297.734 262.685 296.807 269.113 298.146 274.915" stroke="#1C2628" stroke-width="2.13" stroke-linecap="round" stroke-linejoin="round"/>
<path d="M317.25 162.059C313.852 174.972 317.353 188.68 320.906 201.536" stroke="#1C2628" stroke-width="2.13" stroke-linecap="round" stroke-linejoin="round"/>
<path d="M318.538 108.532C324.871 111.206 328.836 118.487 329.815 125.882C330.793 133.277 329.3 140.785 327.497 147.952C325.695 155.12 323.584 162.344 323.275 169.795C323.12 173.265 323.841 177.474 326.776 178.726" stroke="#1C2628" stroke-width="2.13" stroke-linecap="round" stroke-linejoin="round"/>
<path d="M214.418 214.221C233.007 230.034 250.772 252.617 250.772 252.617C250.772 252.617 259.578 261.49 256.643 271.445C256.9 277.873 234.14 313.766 234.14 313.766" stroke="#1C2628" stroke-width="2.13" stroke-linecap="round" stroke-linejoin="round"/>
<path fill-rule="evenodd" clip-rule="evenodd" d="M159.732 381.684L142.946 375.882L137.642 365.586L119.979 378.612L149.228 420.762L164.212 442.378C164.212 442.378 178.888 433.277 168.229 417.918C166.015 414.79 159.732 381.684 159.732 381.684Z" fill="#F45B49" stroke="#1C2628" stroke-width="2.13" stroke-linecap="round" stroke-linejoin="round"/>
<path d="M159.732 381.684L142.946 375.882L137.642 365.586L119.979 378.612L149.228 420.762L164.212 442.378C164.212 442.378 178.888 433.277 168.229 417.918C166.015 414.79 159.732 381.684 159.732 381.684Z" fill="#F45B49"/>
<path fill-rule="evenodd" clip-rule="evenodd" d="M141.298 417.748C146.035 418.999 161.071 420.819 161.071 420.819L171.782 413.709C171.782 413.709 179.145 445.791 165.345 445.961C157.312 446.075 151.081 437.884 146.035 432.423C142.894 429.01 141.607 425.427 140.783 420.876" fill="#F45B49"/>
<path d="M141.298 417.748C146.035 418.999 161.071 420.819 161.071 420.819L171.782 413.709C171.782 413.709 179.145 445.791 165.345 445.961C157.312 446.075 151.081 437.884 146.035 432.423C142.894 429.01 141.607 425.427 140.783 420.876" stroke="#1C2628" stroke-width="2.13" stroke-linecap="round" stroke-linejoin="round"/>
<path d="M159.732 381.684L142.946 375.882L137.642 365.586L119.979 378.612L149.228 420.762L164.212 442.378C164.212 442.378 178.888 433.277 168.229 417.918C166.015 414.79 159.732 381.684 159.732 381.684Z" stroke="#1C2628" stroke-width="2.13" stroke-linecap="round" stroke-linejoin="round"/>
<path d="M159.732 381.684L142.946 375.882L137.642 365.586L119.979 378.612L149.228 420.762L164.212 442.378C164.212 442.378 178.888 433.277 168.229 417.918C166.015 414.79 159.732 381.684 159.732 381.684Z" fill="#F45B49" stroke="#1C2628" stroke-width="2.13" stroke-linecap="round" stroke-linejoin="round"/>
<path fill-rule="evenodd" clip-rule="evenodd" d="M159.732 381.684L142.946 375.882L137.642 365.586L119.979 378.612L149.228 420.762L164.212 442.378C164.212 442.378 178.888 433.277 168.229 417.918C166.015 414.79 159.732 381.684 159.732 381.684Z" fill="#F45B49" stroke="#1C2628" stroke-width="2.13" stroke-linecap="round" stroke-linejoin="round"/>
<path d="M159.732 381.684L142.946 375.882L137.642 365.586L119.979 378.612L149.228 420.762L164.212 442.378C164.212 442.378 178.888 433.277 168.229 417.918C166.015 414.79 159.732 381.684 159.732 381.684Z" fill="#F45B49"/>
<path fill-rule="evenodd" clip-rule="evenodd" d="M141.298 417.748C146.035 418.999 161.071 420.819 161.071 420.819L171.782 413.709C171.782 413.709 179.145 445.791 165.345 445.961C157.312 446.075 151.081 437.884 146.035 432.423C142.894 429.01 141.607 425.427 140.783 420.876" fill="#F45B49"/>
<path d="M141.298 417.748C146.035 418.999 161.071 420.819 161.071 420.819L171.782 413.709C171.782 413.709 179.145 445.791 165.345 445.961C157.312 446.075 151.081 437.884 146.035 432.423C142.894 429.01 141.607 425.427 140.783 420.876" stroke="#1C2628" stroke-width="2.13" stroke-linecap="round" stroke-linejoin="round"/>
<path d="M159.732 381.684L142.946 375.882L137.642 365.586L119.979 378.612L149.228 420.762L164.212 442.378C164.212 442.378 178.888 433.277 168.229 417.918C166.015 414.79 159.732 381.684 159.732 381.684Z" stroke="#1C2628" stroke-width="2.13" stroke-linecap="round" stroke-linejoin="round"/>
<path d="M159.732 381.684L142.946 375.882L137.642 365.586L119.979 378.612L149.228 420.762L164.212 442.378C164.212 442.378 178.888 433.277 168.229 417.918C166.015 414.79 159.732 381.684 159.732 381.684Z" fill="#1C2628" stroke="#1C2628" stroke-width="2.13" stroke-linecap="round" stroke-linejoin="round"/>
<path d="M163.131 401.195L157.982 403.868" stroke="#FFFDFD" stroke-width="2.13" stroke-linecap="round" stroke-linejoin="round"/>
<path d="M164.264 406.485L159.835 409.215" stroke="#FFFDFD" stroke-width="2.13" stroke-linecap="round" stroke-linejoin="round"/>
<path d="M165.345 411.946L161.844 414.221" stroke="#FFFDFD" stroke-width="2.13" stroke-linecap="round" stroke-linejoin="round"/>
<path fill-rule="evenodd" clip-rule="evenodd" d="M123.224 376.052L142.585 360.922C142.585 360.922 157.415 377.418 163.182 383.447C166.529 386.917 164.418 392.947 158.805 391.923C154.841 391.24 146.705 386.291 146.705 386.291L135.016 393.345L123.224 376.052Z" fill="#F45B49" stroke="#1C2628" stroke-width="2.13" stroke-linecap="round" stroke-linejoin="round"/>
<path fill-rule="evenodd" clip-rule="evenodd" d="M158.342 385.154C159.217 384.471 160.453 384.642 161.071 385.609C161.741 386.519 161.483 387.827 160.608 388.453C159.732 389.135 158.496 388.965 157.827 388.055C157.261 387.088 157.467 385.836 158.342 385.154Z" fill="#F45B49" stroke="#1C2628" stroke-width="2.13" stroke-linecap="round" stroke-linejoin="round"/>
<path fill-rule="evenodd" clip-rule="evenodd" d="M124.356 374.517L136.818 392.321L135.736 395.848L167.456 440.671L162.667 444.312L117.405 379.807L124.356 374.517Z" fill="#F45B49" stroke="#1C2628" stroke-width="2.13" stroke-linecap="round" stroke-linejoin="round"/>
<path d="M382.904 145.734H350.669V236.576" stroke="#1C2628" stroke-width="2.13" stroke-linecap="round" stroke-linejoin="round"/>
<path d="M388.054 152.048H356.591V232.139" stroke="#1C2628" stroke-width="2.13" stroke-linecap="round" stroke-linejoin="round"/>
<path d="M150.052 110.922L174.305 130.034L184.14 113.197" stroke="#1C2628" stroke-width="2.13" stroke-linecap="round" stroke-linejoin="round"/>
<path d="M372.966 247.156L423.79 214.79L372.966 182.366V247.156Z" fill="#1C2628" stroke="#1C2628" stroke-width="2.13" stroke-linecap="round" stroke-linejoin="round"/>
</svg>
