<svg width="128" height="128" viewBox="0 0 128 128" fill="none" xmlns="http://www.w3.org/2000/svg">
<g clip-path="url(#clip0)">
<path d="M41.312 105.696C44.768 105.696 47.328 104.896 48.992 103.296C50.656 101.696 51.488 99.84 51.488 97.728C51.488 96.512 51.296 95.392 50.912 94.368C50.528 93.344 49.888 92.352 48.992 91.392C48.16 90.432 47.04 89.504 45.632 88.608C44.224 87.648 42.464 86.624 40.352 85.536C37.728 84.192 35.456 82.912 33.536 81.696C31.68 80.48 30.144 79.2 28.928 77.856C27.712 76.512 26.784 75.072 26.144 73.536C25.568 72 25.28 70.272 25.28 68.352C25.28 66.048 25.696 64.064 26.528 62.4C27.36 60.672 28.512 59.264 29.984 58.176C31.52 57.024 33.312 56.192 35.36 55.68C37.408 55.104 39.68 54.816 42.176 54.816C47.168 54.816 52.032 56.032 56.768 58.464V70.752H52.256L50.144 60.384C47.328 59.04 44.352 58.368 41.216 58.368C35.968 58.368 33.344 60.512 33.344 64.8C33.344 67.104 34.208 69.216 35.936 71.136C37.664 73.056 40.448 74.976 44.288 76.896C46.912 78.24 49.216 79.52 51.2 80.736C53.184 81.952 54.816 83.232 56.096 84.576C57.44 85.92 58.432 87.392 59.072 88.992C59.776 90.528 60.128 92.288 60.128 94.272C60.128 96.512 59.648 98.592 58.688 100.512C57.728 102.432 56.384 104.096 54.656 105.504C52.928 106.848 50.848 107.904 48.416 108.672C45.984 109.504 43.296 109.92 40.352 109.92C34.656 109.92 29.312 108.704 24.32 106.272V93.984H28.832L30.944 103.488C34.208 104.96 37.664 105.696 41.312 105.696Z" fill="black"/>
<path d="M69.872 87.352L89.936 67.96L83.6 67.192C83.344 66.168 83.344 64.92 83.6 63.448C87.12 63.704 90.416 63.832 93.488 63.832C95.984 63.832 99.312 63.736 103.472 63.544C103.856 64.696 103.856 65.912 103.472 67.192L95.888 68.536L78.896 84.472L99.824 109.528L107.312 111.448C107.568 112.472 107.568 113.752 107.312 115.288C103.28 115.096 99.248 115 95.216 115C92.464 115 88.4 115.064 83.024 115.192C82.64 113.912 82.64 112.664 83.024 111.448L89.36 110.584L69.872 87.352ZM68.816 54.136V110.104L76.592 111.544C76.848 112.568 76.848 113.848 76.592 115.384C72.56 115.192 68.464 115.096 64.304 115.096C61.36 115.096 57.2 115.16 51.824 115.288C51.44 114.072 51.44 112.824 51.824 111.544L59.408 110.488C59.664 106.968 59.792 102.904 59.792 98.296V43.288L51.92 42.328C51.664 41.368 51.664 40.152 51.92 38.68C56.208 38.36 61.68 37.688 68.336 36.664C68.912 37.304 69.232 37.944 69.296 38.584C68.976 40.248 68.816 45.432 68.816 54.136Z" fill="black" fill-opacity="0.5"/>
<path d="M105.334 88.2068C110.031 80.636 112.62 71.9477 112.833 63.0407C113.045 54.1338 110.874 45.3318 106.544 37.5454C102.214 29.7591 95.8816 23.2712 88.2028 18.7531C80.5239 14.2349 71.7772 11.8507 62.8677 11.847C53.9583 11.8433 45.2096 14.2203 37.527 18.732C29.8444 23.2438 23.5068 29.7264 19.1701 37.5092C14.8333 45.2919 12.6549 54.0921 12.8603 62.9992C13.0656 71.9063 15.6472 80.5968 20.3379 88.1714L22.335 86.9347C17.8647 79.7159 15.4044 71.4337 15.2087 62.9451C15.013 54.4564 17.0891 46.0697 21.2221 38.6526C25.3551 31.2355 31.3949 25.0574 38.7166 20.7576C46.0383 16.4578 54.3759 14.1925 62.8668 14.196C71.3577 14.1996 79.6934 16.4718 87.0115 20.7777C94.3296 25.0835 100.364 31.2666 104.491 38.6872C108.618 46.1077 110.687 54.4962 110.484 62.9846C110.282 71.4731 107.814 79.7533 103.338 86.9683L105.334 88.2068Z" fill="black"/>
<circle cx="20" cy="84" r="10" fill="black"/>
<circle cx="103" cy="86" r="10" fill="black"/>
</g>
<defs>
<clipPath id="clip0">
<rect width="128" height="128" fill="white"/>
</clipPath>
</defs>
</svg>
